<svg width="24" height="24" viewBox="0 0 24 24" fill="none" xmlns="http://www.w3.org/2000/svg">
<g clip-path="url(#clip0_6335_2019)">
<path d="M12 0C5.3832 0 0 5.38327 0 12.0001C0 18.6169 5.3832 24 12 24C18.6168 24 24 18.6169 24 12.0001C24 5.38327 18.6168 0 12 0ZM12 21.8182C6.5862 21.8182 2.18182 17.4138 2.18182 12.0001C2.18182 6.58632 6.5862 2.18182 12 2.18182C17.4138 2.18182 21.8182 6.58632 21.8182 12.0001C21.8182 17.4138 17.4137 21.8182 12 21.8182Z" />
<path d="M11.9998 5.09094C11.1979 5.09094 10.5455 5.74374 10.5455 6.54615C10.5455 7.34781 11.1979 8.00001 11.9998 8.00001C12.8017 8.00001 13.454 7.34781 13.454 6.54615C13.454 5.74374 12.8017 5.09094 11.9998 5.09094Z"/>
<path d="M12 10.1818C11.3975 10.1818 10.9091 10.6703 10.9091 11.2727V17.8182C10.9091 18.4207 11.3975 18.9091 12 18.9091C12.6025 18.9091 13.0909 18.4207 13.0909 17.8182V11.2727C13.0909 10.6703 12.6025 10.1818 12 10.1818Z" />
</g>
<defs>
<clipPath id="clip0_6335_2019">
<rect width="24" height="24"

/>
</clipPath>
</defs>
</svg>
