<svg width="40" height="40" viewBox="0 0 40 40" fill="none" xmlns="http://www.w3.org/2000/svg">
<circle cx="20.0835" cy="20" r="6.25" fill="#F9F9F9"/>
<path fill-rule="evenodd" clip-rule="evenodd" d="M30.5131 9.4868C30.9036 9.87733 30.9036 10.5105 30.5131 10.901L28.6275 12.7866C28.237 13.1772 27.6038 13.1772 27.2133 12.7866C26.8228 12.3961 26.8228 11.7629 27.2133 11.3724L29.0989 9.4868C29.4894 9.09628 30.1226 9.09628 30.5131 9.4868Z" fill="#F9F9F9"/>
<path fill-rule="evenodd" clip-rule="evenodd" d="M12.9535 27.0467C13.3441 27.4372 13.3441 28.0704 12.9535 28.4609L11.0679 30.3465C10.6774 30.737 10.0442 30.737 9.65371 30.3465C9.26318 29.956 9.26318 29.3228 9.65371 28.9323L11.5393 27.0467C11.9298 26.6562 12.563 26.6562 12.9535 27.0467Z" fill="#F9F9F9"/>
<path fill-rule="evenodd" clip-rule="evenodd" d="M34.8335 19.9167C34.8335 20.469 34.3858 20.9167 33.8335 20.9167L31.1668 20.9167C30.6145 20.9167 30.1668 20.469 30.1668 19.9167C30.1668 19.3644 30.6145 18.9167 31.1668 18.9167L33.8335 18.9167C34.3858 18.9167 34.8335 19.3644 34.8335 19.9167Z" fill="#F9F9F9"/>
<path fill-rule="evenodd" clip-rule="evenodd" d="M10 19.9167C10 20.469 9.55228 20.9167 9 20.9167L6.33333 20.9167C5.78105 20.9167 5.33333 20.469 5.33333 19.9167C5.33333 19.3644 5.78105 18.9167 6.33333 18.9167L9 18.9167C9.55228 18.9167 10 19.3644 10 19.9167Z" fill="#F9F9F9"/>
<path fill-rule="evenodd" clip-rule="evenodd" d="M30.5133 30.3465C30.1227 30.737 29.4896 30.737 29.099 30.3465L27.2134 28.4609C26.8229 28.0703 26.8229 27.4372 27.2134 27.0467C27.604 26.6561 28.2371 26.6561 28.6276 27.0467L30.5133 28.9323C30.9038 29.3228 30.9038 29.956 30.5133 30.3465Z" fill="#F9F9F9"/>
<path fill-rule="evenodd" clip-rule="evenodd" d="M12.9532 12.7867C12.5627 13.1772 11.9295 13.1772 11.539 12.7867L9.65337 10.901C9.26284 10.5105 9.26284 9.87736 9.65337 9.48684C10.0439 9.09631 10.6771 9.09631 11.0676 9.48684L12.9532 11.3725C13.3437 11.763 13.3437 12.3961 12.9532 12.7867Z" fill="#F9F9F9"/>
<path fill-rule="evenodd" clip-rule="evenodd" d="M20.0835 34.6667C19.5312 34.6667 19.0835 34.219 19.0835 33.6667L19.0835 31C19.0835 30.4477 19.5312 30 20.0835 30C20.6358 30 21.0835 30.4477 21.0835 31L21.0835 33.6667C21.0835 34.219 20.6358 34.6667 20.0835 34.6667Z" fill="#F9F9F9"/>
<path fill-rule="evenodd" clip-rule="evenodd" d="M20.0835 9.83331C19.5312 9.83331 19.0835 9.3856 19.0835 8.83331L19.0835 6.16665C19.0835 5.61436 19.5312 5.16665 20.0835 5.16665C20.6358 5.16665 21.0835 5.61436 21.0835 6.16665L21.0835 8.83331C21.0835 9.3856 20.6358 9.83331 20.0835 9.83331Z" fill="#F9F9F9"/>
<path fill-rule="evenodd" clip-rule="evenodd" d="M9.6534 30.3465C9.26287 29.956 9.26287 29.3228 9.6534 28.9323L11.539 27.0467C11.9295 26.6562 12.5627 26.6562 12.9532 27.0467C13.3438 27.4372 13.3438 28.0704 12.9532 28.4609L11.0676 30.3465C10.6771 30.737 10.0439 30.737 9.6534 30.3465Z" fill="#F9F9F9"/>
<path fill-rule="evenodd" clip-rule="evenodd" d="M27.2135 12.7866C26.8229 12.3961 26.8229 11.7629 27.2135 11.3724L29.0991 9.4868C29.4896 9.09628 30.1228 9.09628 30.5133 9.4868C30.9038 9.87733 30.9038 10.5105 30.5133 10.901L28.6277 12.7866C28.2371 13.1772 27.604 13.1772 27.2135 12.7866Z" fill="#F9F9F9"/>
</svg>
